<mxfile host="app.diagrams.net" modified="2021-02-17T20:27:58.518Z" agent="5.0 (Macintosh; Intel Mac OS X 10_15_7) AppleWebKit/605.1.15 (KHTML, like Gecko) Version/13.1.3 Safari/605.1.15" etag="Bj1tPxmWaWXOLnXUb-ew" version="14.2.7" type="github">
  <diagram id="kgpKYQtTHZ0yAKxKKP6v" name="Page-1">
    <mxGraphModel dx="1362" dy="757" grid="1" gridSize="10" guides="1" tooltips="1" connect="1" arrows="1" fold="1" page="1" pageScale="1" pageWidth="850" pageHeight="1100" math="0" shadow="0">
      <root>
        <mxCell id="0" />
        <mxCell id="1" parent="0" />
        <mxCell id="RhclrDftbYTFHh-PoJww-3" style="edgeStyle=orthogonalEdgeStyle;rounded=0;orthogonalLoop=1;jettySize=auto;html=1;exitX=1;exitY=0.5;exitDx=0;exitDy=0;entryX=0;entryY=0.5;entryDx=0;entryDy=0;" edge="1" parent="1" source="RhclrDftbYTFHh-PoJww-1" target="RhclrDftbYTFHh-PoJww-2">
          <mxGeometry relative="1" as="geometry" />
        </mxCell>
        <mxCell id="RhclrDftbYTFHh-PoJww-13" value="Избыточное кодирование" style="edgeLabel;html=1;align=center;verticalAlign=middle;resizable=0;points=[];" vertex="1" connectable="0" parent="RhclrDftbYTFHh-PoJww-3">
          <mxGeometry x="-0.0917" y="1" relative="1" as="geometry">
            <mxPoint as="offset" />
          </mxGeometry>
        </mxCell>
        <mxCell id="RhclrDftbYTFHh-PoJww-1" value="Слово длины k" style="ellipse;whiteSpace=wrap;html=1;" vertex="1" parent="1">
          <mxGeometry x="240" y="410" width="120" height="80" as="geometry" />
        </mxCell>
        <mxCell id="RhclrDftbYTFHh-PoJww-2" value="Слово длины n &amp;gt;= k" style="ellipse;whiteSpace=wrap;html=1;" vertex="1" parent="1">
          <mxGeometry x="600" y="410" width="130" height="80" as="geometry" />
        </mxCell>
        <mxCell id="RhclrDftbYTFHh-PoJww-12" value="Декодирование&amp;nbsp;" style="edgeStyle=orthogonalEdgeStyle;rounded=0;orthogonalLoop=1;jettySize=auto;html=1;exitX=0;exitY=0.5;exitDx=0;exitDy=0;entryX=1;entryY=0.5;entryDx=0;entryDy=0;" edge="1" parent="1" source="RhclrDftbYTFHh-PoJww-6" target="RhclrDftbYTFHh-PoJww-11">
          <mxGeometry relative="1" as="geometry" />
        </mxCell>
        <mxCell id="RhclrDftbYTFHh-PoJww-6" value="Искаженное слово&amp;nbsp;&lt;br&gt;длины n" style="rhombus;whiteSpace=wrap;html=1;" vertex="1" parent="1">
          <mxGeometry x="595" y="590" width="140" height="130" as="geometry" />
        </mxCell>
        <mxCell id="RhclrDftbYTFHh-PoJww-9" value="" style="endArrow=classic;html=1;exitX=0.5;exitY=1;exitDx=0;exitDy=0;entryX=0.5;entryY=0;entryDx=0;entryDy=0;" edge="1" parent="1" source="RhclrDftbYTFHh-PoJww-2" target="RhclrDftbYTFHh-PoJww-6">
          <mxGeometry relative="1" as="geometry">
            <mxPoint x="780" y="390" as="sourcePoint" />
            <mxPoint x="880" y="390" as="targetPoint" />
          </mxGeometry>
        </mxCell>
        <mxCell id="RhclrDftbYTFHh-PoJww-10" value="Передача с искажением" style="edgeLabel;resizable=0;html=1;align=center;verticalAlign=middle;" connectable="0" vertex="1" parent="RhclrDftbYTFHh-PoJww-9">
          <mxGeometry relative="1" as="geometry" />
        </mxCell>
        <mxCell id="RhclrDftbYTFHh-PoJww-11" value="Слово длины k" style="ellipse;whiteSpace=wrap;html=1;" vertex="1" parent="1">
          <mxGeometry x="240" y="615" width="120" height="80" as="geometry" />
        </mxCell>
      </root>
    </mxGraphModel>
  </diagram>
</mxfile>
